<svg width="26" height="25" viewBox="0 0 26 25" fill="none" xmlns="http://www.w3.org/2000/svg">
<path d="M23.8655 1.73862C22.2152 0.0876144 17.7854 1.71149 13.0522 5.41426C8.31835 1.71149 3.88923 0.0876144 2.23822 1.73862C0.587904 3.38963 2.21178 7.81876 5.91385 12.5526C2.21178 17.2858 0.587904 21.7149 2.23822 23.3659C3.88923 25.0169 8.31835 23.3931 13.0522 19.691C17.7854 23.3931 22.2152 25.0169 23.8655 23.3659C25.5165 21.7149 23.8927 17.2858 20.1906 12.5526C23.8927 7.81876 25.5165 3.38963 23.8655 1.73862ZM17.0514 12.5526L14.0722 12.929C15.3475 13.6338 17.3095 15.0949 18.6732 16.4586C20.5579 18.344 20.2873 18.8484 19.8093 19.3271C19.3306 19.8051 18.8262 20.0757 16.9408 18.191C15.5854 16.835 14.1334 14.8841 13.4244 13.6095L13.0522 16.5511L12.6779 13.5956C11.9682 14.8695 10.5176 16.8189 9.16299 18.1736C7.27821 20.0583 6.77309 19.7877 6.29512 19.3097C5.81644 18.8311 5.5458 18.3266 7.43128 16.4412C8.7859 15.0865 10.7312 13.6352 12.0065 12.9262L9.05306 12.5526L11.9954 12.1797C10.7215 11.4714 8.7692 10.0194 7.41388 8.6634C5.52841 6.77862 5.79905 6.27351 6.27772 5.79553C6.7557 5.31685 7.26082 5.04621 9.1456 6.93168C10.5093 8.29465 11.971 10.2567 12.6751 11.5313L13.0522 8.55347L13.4272 11.5174C14.1313 10.242 15.5938 8.27865 16.9581 6.9136C18.8436 5.02882 19.348 5.29946 19.8267 5.77813C20.3047 6.25611 20.576 6.76122 18.6906 8.646C17.3262 10.0104 15.3579 11.4728 14.0833 12.1769L17.0514 12.5526ZM13.4272 11.5174C13.2463 11.8451 13.1155 12.1275 13.0494 12.3418C12.9813 12.1282 12.8518 11.852 12.6751 11.5313L12.6028 12.1032L11.9954 12.1797C12.3078 12.3536 12.5791 12.4824 12.7913 12.5547C12.5798 12.6278 12.3126 12.7558 12.0065 12.9262L12.6028 13.0014L12.6779 13.5956C12.8484 13.2894 12.9757 13.023 13.0494 12.8121C13.1211 13.0243 13.2505 13.2964 13.4244 13.6095L13.5017 13.0014L14.0722 12.929C13.7521 12.7516 13.4745 12.6229 13.2616 12.5547C13.4752 12.4886 13.7563 12.3578 14.0833 12.1769L13.5017 12.1032L13.4272 11.5174Z" fill="white"/>
</svg>
