<svg width="16" height="16" viewBox="0 0 16 16" fill="none" xmlns="http://www.w3.org/2000/svg">
<mask id="path-1-inside-1_122_351" fill="white">
<path fill-rule="evenodd" clip-rule="evenodd" d="M8 16C12.4183 16 16 12.4183 16 8C16 3.58172 12.4183 0 8 0C3.58172 0 0 3.58172 0 8C0 12.4183 3.58172 16 8 16ZM9.27904 10.2932V8.075H10.8531V9.26091L10.2344 9.8796H9.8593V10.2547L9.2374 10.8766H7.85266V10.2932H9.27904ZM9.85923 9.29948H10.2695V8.65519H9.85923V9.29948ZM10.2691 6.2744L9.85884 5.8609L9.85563 5.85769L9.27865 5.28071L9.27544 5.2775H6.85529L6.2751 5.85769V6.2744H5.85839L5.28141 6.85139V9.30034L6.2751 10.2908V10.294H6.27831L6.85529 10.8774H6.8585V6.8546H10.8525L10.2691 6.2744ZM6.2751 9.4703L6.102 9.3004L5.8616 9.06V6.8546H6.2751V9.4703ZM6.8585 6.2744V5.85769H9.03504L9.27865 6.1013L9.44854 6.2744H6.8585ZM9.27817 9.88091V9.3H7.27016V10.8765H7.85113V9.88091H9.27817Z"/>
</mask>
<g filter="url(#filter0_i_122_351)">
<path fill-rule="evenodd" clip-rule="evenodd" d="M8 16C12.4183 16 16 12.4183 16 8C16 3.58172 12.4183 0 8 0C3.58172 0 0 3.58172 0 8C0 12.4183 3.58172 16 8 16ZM9.27904 10.2932V8.075H10.8531V9.26091L10.2344 9.8796H9.8593V10.2547L9.2374 10.8766H7.85266V10.2932H9.27904ZM9.85923 9.29948H10.2695V8.65519H9.85923V9.29948ZM10.2691 6.2744L9.85884 5.8609L9.85563 5.85769L9.27865 5.28071L9.27544 5.2775H6.85529L6.2751 5.85769V6.2744H5.85839L5.28141 6.85139V9.30034L6.2751 10.2908V10.294H6.27831L6.85529 10.8774H6.8585V6.8546H10.8525L10.2691 6.2744ZM6.2751 9.4703L6.102 9.3004L5.8616 9.06V6.8546H6.2751V9.4703ZM6.8585 6.2744V5.85769H9.03504L9.27865 6.1013L9.44854 6.2744H6.8585ZM9.27817 9.88091V9.3H7.27016V10.8765H7.85113V9.88091H9.27817Z" fill="url(#paint0_angular_122_351)"/>
</g>
<path d="M9.27904 8.075V7.95H9.15404V8.075H9.27904ZM9.27904 10.2932V10.4182H9.40404V10.2932H9.27904ZM10.8531 8.075H10.9781V7.95H10.8531V8.075ZM10.8531 9.26091L10.9414 9.3493L10.9781 9.31269V9.26091H10.8531ZM10.2344 9.8796V10.0046H10.2861L10.3228 9.96799L10.2344 9.8796ZM9.8593 9.8796V9.7546H9.7343V9.8796H9.8593ZM9.8593 10.2547L9.94769 10.3431L9.9843 10.3065V10.2547H9.8593ZM9.2374 10.8766V11.0016H9.28918L9.32579 10.965L9.2374 10.8766ZM7.85266 10.8766H7.72766V11.0016H7.85266V10.8766ZM7.85266 10.2932V10.1682H7.72766V10.2932H7.85266ZM10.2695 9.29948V9.42448H10.3945V9.29948H10.2695ZM9.85923 9.29948H9.73423V9.42448H9.85923V9.29948ZM10.2695 8.65519H10.3945V8.53019H10.2695V8.65519ZM9.85923 8.65519V8.53019H9.73423V8.65519H9.85923ZM9.85884 5.8609L9.94757 5.77285L9.94724 5.77252L9.85884 5.8609ZM10.2691 6.2744L10.1804 6.36245L10.181 6.36304L10.2691 6.2744ZM9.85563 5.85769L9.94403 5.76932L9.94402 5.7693L9.85563 5.85769ZM9.27865 5.28071L9.19024 5.36908L9.19026 5.3691L9.27865 5.28071ZM9.27544 5.2775L9.36384 5.18913L9.32723 5.1525H9.27544V5.2775ZM6.85529 5.2775V5.1525H6.80352L6.7669 5.18911L6.85529 5.2775ZM6.2751 5.85769L6.18671 5.7693L6.1501 5.80591V5.85769H6.2751ZM6.2751 6.2744V6.3994H6.4001V6.2744H6.2751ZM5.85839 6.2744V6.1494H5.80661L5.77 6.18602L5.85839 6.2744ZM5.28141 6.85139L5.19302 6.763L5.15641 6.79961V6.85139H5.28141ZM5.28141 9.30034H5.15641V9.35223L5.19316 9.38887L5.28141 9.30034ZM6.2751 10.2908H6.4001V10.2389L6.36335 10.2023L6.2751 10.2908ZM6.2751 10.294H6.1501V10.419H6.2751V10.294ZM6.27831 10.294L6.36719 10.2061L6.33049 10.169H6.27831V10.294ZM6.85529 10.8774L6.76642 10.9653L6.80311 11.0024H6.85529V10.8774ZM6.8585 10.8774V11.0024H6.9835V10.8774H6.8585ZM6.8585 6.8546V6.7296H6.7335V6.8546H6.8585ZM10.8525 6.8546V6.9796H11.1555L10.9407 6.76596L10.8525 6.8546ZM6.102 9.3004L6.01361 9.3888L6.01444 9.38962L6.102 9.3004ZM6.2751 9.4703L6.18754 9.55951L6.4001 9.76813V9.4703H6.2751ZM5.8616 9.06H5.7366V9.11178L5.77321 9.14839L5.8616 9.06ZM5.8616 6.8546V6.7296H5.7366V6.8546H5.8616ZM6.2751 6.8546H6.4001V6.7296H6.2751V6.8546ZM6.8585 5.85769V5.73269H6.7335V5.85769H6.8585ZM6.8585 6.2744H6.7335V6.3994H6.8585V6.2744ZM9.03504 5.85769L9.12342 5.7693L9.08681 5.73269H9.03504V5.85769ZM9.27865 6.1013L9.36786 6.01374L9.36703 6.01292L9.27865 6.1013ZM9.44854 6.2744V6.3994H9.74637L9.53775 6.18685L9.44854 6.2744ZM9.27817 9.3H9.40317V9.175H9.27817V9.3ZM9.27817 9.88091V10.0059H9.40317V9.88091H9.27817ZM7.27016 9.3V9.175H7.14516V9.3H7.27016ZM7.27016 10.8765H7.14516V11.0015H7.27016V10.8765ZM7.85113 10.8765V11.0015H7.97613V10.8765H7.85113ZM7.85113 9.88091V9.75591H7.72613V9.88091H7.85113ZM15.875 8C15.875 12.3492 12.3492 15.875 8 15.875V16.125C12.4873 16.125 16.125 12.4873 16.125 8H15.875ZM8 0.125C12.3492 0.125 15.875 3.65076 15.875 8H16.125C16.125 3.51269 12.4873 -0.125 8 -0.125V0.125ZM0.125 8C0.125 3.65076 3.65076 0.125 8 0.125V-0.125C3.51269 -0.125 -0.125 3.51269 -0.125 8H0.125ZM8 15.875C3.65076 15.875 0.125 12.3492 0.125 8H-0.125C-0.125 12.4873 3.51269 16.125 8 16.125V15.875ZM9.15404 8.075V10.2932H9.40404V8.075H9.15404ZM10.8531 7.95H9.27904V8.2H10.8531V7.95ZM10.9781 9.26091V8.075H10.7281V9.26091H10.9781ZM10.3228 9.96799L10.9414 9.3493L10.7647 9.17253L10.146 9.79121L10.3228 9.96799ZM9.8593 10.0046H10.2344V9.7546H9.8593V10.0046ZM9.9843 10.2547V9.8796H9.7343V10.2547H9.9843ZM9.32579 10.965L9.94769 10.3431L9.77091 10.1663L9.14901 10.7882L9.32579 10.965ZM7.85266 11.0016H9.2374V10.7516H7.85266V11.0016ZM7.72766 10.2932V10.8766H7.97766V10.2932H7.72766ZM9.27904 10.1682H7.85266V10.4182H9.27904V10.1682ZM10.2695 9.17448H9.85923V9.42448H10.2695V9.17448ZM10.1445 8.65519V9.29948H10.3945V8.65519H10.1445ZM9.85923 8.78019H10.2695V8.53019H9.85923V8.78019ZM9.98423 9.29948V8.65519H9.73423V9.29948H9.98423ZM9.77011 5.94894L10.1804 6.36245L10.3579 6.18636L9.94757 5.77286L9.77011 5.94894ZM9.76723 5.94607L9.77044 5.94927L9.94724 5.77252L9.94403 5.76932L9.76723 5.94607ZM9.19026 5.3691L9.76724 5.94608L9.94402 5.7693L9.36703 5.19232L9.19026 5.3691ZM9.18704 5.36588L9.19024 5.36908L9.36705 5.19233L9.36384 5.18913L9.18704 5.36588ZM6.85529 5.4025H9.27544V5.1525H6.85529V5.4025ZM6.36349 5.94608L6.94368 5.36589L6.7669 5.18911L6.18671 5.7693L6.36349 5.94608ZM6.4001 6.2744V5.85769H6.1501V6.2744H6.4001ZM5.85839 6.3994H6.2751V6.1494H5.85839V6.3994ZM5.36979 6.93978L5.94678 6.36279L5.77 6.18602L5.19302 6.763L5.36979 6.93978ZM5.40641 9.30034V6.85139H5.15641V9.30034H5.40641ZM6.36335 10.2023L5.36965 9.21181L5.19316 9.38887L6.18686 10.3794L6.36335 10.2023ZM6.4001 10.294V10.2908H6.1501V10.294H6.4001ZM6.27831 10.169H6.2751V10.419H6.27831V10.169ZM6.94417 10.7895L6.36719 10.2061L6.18943 10.3819L6.76642 10.9653L6.94417 10.7895ZM6.8585 10.7524H6.85529V11.0024H6.8585V10.7524ZM6.7335 6.8546V10.8774H6.9835V6.8546H6.7335ZM10.8525 6.7296H6.8585V6.9796H10.8525V6.7296ZM10.181 6.36304L10.7644 6.94323L10.9407 6.76596L10.3573 6.18577L10.181 6.36304ZM6.01444 9.38962L6.18754 9.55951L6.36266 9.38109L6.18956 9.21119L6.01444 9.38962ZM5.77321 9.14839L6.01361 9.38879L6.19039 9.21202L5.94999 8.97161L5.77321 9.14839ZM5.7366 6.8546V9.06H5.9866V6.8546H5.7366ZM6.2751 6.7296H5.8616V6.9796H6.2751V6.7296ZM6.4001 9.4703V6.8546H6.1501V9.4703H6.4001ZM6.7335 5.85769V6.2744H6.9835V5.85769H6.7335ZM9.03504 5.73269H6.8585V5.98269H9.03504V5.73269ZM9.36703 6.01292L9.12342 5.7693L8.94665 5.94608L9.19026 6.18969L9.36703 6.01292ZM9.53775 6.18685L9.36786 6.01374L9.18944 6.18886L9.35933 6.36196L9.53775 6.18685ZM6.8585 6.3994H9.44854V6.1494H6.8585V6.3994ZM9.15317 9.3V9.88091H9.40317V9.3H9.15317ZM7.27016 9.425H9.27817V9.175H7.27016V9.425ZM7.39516 10.8765V9.3H7.14516V10.8765H7.39516ZM7.85113 10.7515H7.27016V11.0015H7.85113V10.7515ZM7.72613 9.88091V10.8765H7.97613V9.88091H7.72613ZM9.27817 9.75591H7.85113V10.0059H9.27817V9.75591Z" fill="url(#paint1_linear_122_351)" style="mix-blend-mode:overlay" mask="url(#path-1-inside-1_122_351)"/>
<path d="M9.27904 8.075V7.95H9.15404V8.075H9.27904ZM9.27904 10.2932V10.4182H9.40404V10.2932H9.27904ZM10.8531 8.075H10.9781V7.95H10.8531V8.075ZM10.8531 9.26091L10.9414 9.3493L10.9781 9.31269V9.26091H10.8531ZM10.2344 9.8796V10.0046H10.2861L10.3228 9.96799L10.2344 9.8796ZM9.8593 9.8796V9.7546H9.7343V9.8796H9.8593ZM9.8593 10.2547L9.94769 10.3431L9.9843 10.3065V10.2547H9.8593ZM9.2374 10.8766V11.0016H9.28918L9.32579 10.965L9.2374 10.8766ZM7.85266 10.8766H7.72766V11.0016H7.85266V10.8766ZM7.85266 10.2932V10.1682H7.72766V10.2932H7.85266ZM10.2695 9.29948V9.42448H10.3945V9.29948H10.2695ZM9.85923 9.29948H9.73423V9.42448H9.85923V9.29948ZM10.2695 8.65519H10.3945V8.53019H10.2695V8.65519ZM9.85923 8.65519V8.53019H9.73423V8.65519H9.85923ZM9.85884 5.8609L9.94757 5.77285L9.94724 5.77252L9.85884 5.8609ZM10.2691 6.2744L10.1804 6.36245L10.181 6.36304L10.2691 6.2744ZM9.85563 5.85769L9.94403 5.76932L9.94402 5.7693L9.85563 5.85769ZM9.27865 5.28071L9.19024 5.36908L9.19026 5.3691L9.27865 5.28071ZM9.27544 5.2775L9.36384 5.18913L9.32723 5.1525H9.27544V5.2775ZM6.85529 5.2775V5.1525H6.80352L6.7669 5.18911L6.85529 5.2775ZM6.2751 5.85769L6.18671 5.7693L6.1501 5.80591V5.85769H6.2751ZM6.2751 6.2744V6.3994H6.4001V6.2744H6.2751ZM5.85839 6.2744V6.1494H5.80661L5.77 6.18602L5.85839 6.2744ZM5.28141 6.85139L5.19302 6.763L5.15641 6.79961V6.85139H5.28141ZM5.28141 9.30034H5.15641V9.35223L5.19316 9.38887L5.28141 9.30034ZM6.2751 10.2908H6.4001V10.2389L6.36335 10.2023L6.2751 10.2908ZM6.2751 10.294H6.1501V10.419H6.2751V10.294ZM6.27831 10.294L6.36719 10.2061L6.33049 10.169H6.27831V10.294ZM6.85529 10.8774L6.76642 10.9653L6.80311 11.0024H6.85529V10.8774ZM6.8585 10.8774V11.0024H6.9835V10.8774H6.8585ZM6.8585 6.8546V6.7296H6.7335V6.8546H6.8585ZM10.8525 6.8546V6.9796H11.1555L10.9407 6.76596L10.8525 6.8546ZM6.102 9.3004L6.01361 9.3888L6.01444 9.38962L6.102 9.3004ZM6.2751 9.4703L6.18754 9.55951L6.4001 9.76813V9.4703H6.2751ZM5.8616 9.06H5.7366V9.11178L5.77321 9.14839L5.8616 9.06ZM5.8616 6.8546V6.7296H5.7366V6.8546H5.8616ZM6.2751 6.8546H6.4001V6.7296H6.2751V6.8546ZM6.8585 5.85769V5.73269H6.7335V5.85769H6.8585ZM6.8585 6.2744H6.7335V6.3994H6.8585V6.2744ZM9.03504 5.85769L9.12342 5.7693L9.08681 5.73269H9.03504V5.85769ZM9.27865 6.1013L9.36786 6.01374L9.36703 6.01292L9.27865 6.1013ZM9.44854 6.2744V6.3994H9.74637L9.53775 6.18685L9.44854 6.2744ZM9.27817 9.3H9.40317V9.175H9.27817V9.3ZM9.27817 9.88091V10.0059H9.40317V9.88091H9.27817ZM7.27016 9.3V9.175H7.14516V9.3H7.27016ZM7.27016 10.8765H7.14516V11.0015H7.27016V10.8765ZM7.85113 10.8765V11.0015H7.97613V10.8765H7.85113ZM7.85113 9.88091V9.75591H7.72613V9.88091H7.85113ZM15.875 8C15.875 12.3492 12.3492 15.875 8 15.875V16.125C12.4873 16.125 16.125 12.4873 16.125 8H15.875ZM8 0.125C12.3492 0.125 15.875 3.65076 15.875 8H16.125C16.125 3.51269 12.4873 -0.125 8 -0.125V0.125ZM0.125 8C0.125 3.65076 3.65076 0.125 8 0.125V-0.125C3.51269 -0.125 -0.125 3.51269 -0.125 8H0.125ZM8 15.875C3.65076 15.875 0.125 12.3492 0.125 8H-0.125C-0.125 12.4873 3.51269 16.125 8 16.125V15.875ZM9.15404 8.075V10.2932H9.40404V8.075H9.15404ZM10.8531 7.95H9.27904V8.2H10.8531V7.95ZM10.9781 9.26091V8.075H10.7281V9.26091H10.9781ZM10.3228 9.96799L10.9414 9.3493L10.7647 9.17253L10.146 9.79121L10.3228 9.96799ZM9.8593 10.0046H10.2344V9.7546H9.8593V10.0046ZM9.9843 10.2547V9.8796H9.7343V10.2547H9.9843ZM9.32579 10.965L9.94769 10.3431L9.77091 10.1663L9.14901 10.7882L9.32579 10.965ZM7.85266 11.0016H9.2374V10.7516H7.85266V11.0016ZM7.72766 10.2932V10.8766H7.97766V10.2932H7.72766ZM9.27904 10.1682H7.85266V10.4182H9.27904V10.1682ZM10.2695 9.17448H9.85923V9.42448H10.2695V9.17448ZM10.1445 8.65519V9.29948H10.3945V8.65519H10.1445ZM9.85923 8.78019H10.2695V8.53019H9.85923V8.78019ZM9.98423 9.29948V8.65519H9.73423V9.29948H9.98423ZM9.77011 5.94894L10.1804 6.36245L10.3579 6.18636L9.94757 5.77286L9.77011 5.94894ZM9.76723 5.94607L9.77044 5.94927L9.94724 5.77252L9.94403 5.76932L9.76723 5.94607ZM9.19026 5.3691L9.76724 5.94608L9.94402 5.7693L9.36703 5.19232L9.19026 5.3691ZM9.18704 5.36588L9.19024 5.36908L9.36705 5.19233L9.36384 5.18913L9.18704 5.36588ZM6.85529 5.4025H9.27544V5.1525H6.85529V5.4025ZM6.36349 5.94608L6.94368 5.36589L6.7669 5.18911L6.18671 5.7693L6.36349 5.94608ZM6.4001 6.2744V5.85769H6.1501V6.2744H6.4001ZM5.85839 6.3994H6.2751V6.1494H5.85839V6.3994ZM5.36979 6.93978L5.94678 6.36279L5.77 6.18602L5.19302 6.763L5.36979 6.93978ZM5.40641 9.30034V6.85139H5.15641V9.30034H5.40641ZM6.36335 10.2023L5.36965 9.21181L5.19316 9.38887L6.18686 10.3794L6.36335 10.2023ZM6.4001 10.294V10.2908H6.1501V10.294H6.4001ZM6.27831 10.169H6.2751V10.419H6.27831V10.169ZM6.94417 10.7895L6.36719 10.2061L6.18943 10.3819L6.76642 10.9653L6.94417 10.7895ZM6.8585 10.7524H6.85529V11.0024H6.8585V10.7524ZM6.7335 6.8546V10.8774H6.9835V6.8546H6.7335ZM10.8525 6.7296H6.8585V6.9796H10.8525V6.7296ZM10.181 6.36304L10.7644 6.94323L10.9407 6.76596L10.3573 6.18577L10.181 6.36304ZM6.01444 9.38962L6.18754 9.55951L6.36266 9.38109L6.18956 9.21119L6.01444 9.38962ZM5.77321 9.14839L6.01361 9.38879L6.19039 9.21202L5.94999 8.97161L5.77321 9.14839ZM5.7366 6.8546V9.06H5.9866V6.8546H5.7366ZM6.2751 6.7296H5.8616V6.9796H6.2751V6.7296ZM6.4001 9.4703V6.8546H6.1501V9.4703H6.4001ZM6.7335 5.85769V6.2744H6.9835V5.85769H6.7335ZM9.03504 5.73269H6.8585V5.98269H9.03504V5.73269ZM9.36703 6.01292L9.12342 5.7693L8.94665 5.94608L9.19026 6.18969L9.36703 6.01292ZM9.53775 6.18685L9.36786 6.01374L9.18944 6.18886L9.35933 6.36196L9.53775 6.18685ZM6.8585 6.3994H9.44854V6.1494H6.8585V6.3994ZM9.15317 9.3V9.88091H9.40317V9.3H9.15317ZM7.27016 9.425H9.27817V9.175H7.27016V9.425ZM7.39516 10.8765V9.3H7.14516V10.8765H7.39516ZM7.85113 10.7515H7.27016V11.0015H7.85113V10.7515ZM7.72613 9.88091V10.8765H7.97613V9.88091H7.72613ZM9.27817 9.75591H7.85113V10.0059H9.27817V9.75591Z" fill="#E7D7D8" mask="url(#path-1-inside-1_122_351)"/>
<defs>
<filter id="filter0_i_122_351" x="0" y="-0.25" width="16" height="16.25" filterUnits="userSpaceOnUse" color-interpolation-filters="sRGB">
<feFlood flood-opacity="0" result="BackgroundImageFix"/>
<feBlend mode="normal" in="SourceGraphic" in2="BackgroundImageFix" result="shape"/>
<feColorMatrix in="SourceAlpha" type="matrix" values="0 0 0 0 0 0 0 0 0 0 0 0 0 0 0 0 0 0 127 0" result="hardAlpha"/>
<feOffset dy="-1"/>
<feGaussianBlur stdDeviation="0.125"/>
<feComposite in2="hardAlpha" operator="arithmetic" k2="-1" k3="1"/>
<feColorMatrix type="matrix" values="0 0 0 0 0.286275 0 0 0 0 0.486275 0 0 0 0 0.909804 0 0 0 1 0"/>
<feBlend mode="normal" in2="shape" result="effect1_innerShadow_122_351"/>
</filter>
<radialGradient id="paint0_angular_122_351" cx="0" cy="0" r="1" gradientUnits="userSpaceOnUse" gradientTransform="translate(9.19608 10.339) rotate(101.93) scale(5.78599 4.90503)">
<stop stop-color="#5585F1"/>
<stop offset="0.182292" stop-color="#9192F8"/>
<stop offset="0.286458" stop-color="#E6E6E6"/>
<stop offset="0.34375" stop-color="#EBA1F9"/>
<stop offset="0.401042" stop-color="#868CF6"/>
<stop offset="0.458333" stop-color="#6283F6"/>
<stop offset="0.552083" stop-color="#6FABD2"/>
<stop offset="0.640625" stop-color="#F5F5F5"/>
</radialGradient>
<linearGradient id="paint1_linear_122_351" x1="-6.12692" y1="10.8246" x2="21.5959" y2="9.00162" gradientUnits="userSpaceOnUse">
<stop offset="0.226684" stop-color="white"/>
<stop offset="0.836133" stop-color="white" stop-opacity="0"/>
</linearGradient>
</defs>
</svg>
