<svg width="17" height="17" viewBox="0 0 17 17" fill="none" xmlns="http://www.w3.org/2000/svg">
<g clip-path="url(#clip0_95_1352)">
<g clip-path="url(#clip1_95_1352)">
<path fill-rule="evenodd" clip-rule="evenodd" d="M8.19902 0C12.7278 0 16.3981 3.6703 16.3981 8.19902C16.3981 12.7278 12.7278 16.3981 8.19902 16.3981C3.6703 16.3981 0 12.7278 0 8.19902C0 3.6703 3.6703 0 8.19902 0Z" fill="#213147"/>
<mask id="mask0_95_1352" style="mask-type:luminance" maskUnits="userSpaceOnUse" x="2" y="1" width="13" height="14">
<path d="M14.0788 1.64844H2.45703V14.7606H14.0788V1.64844Z" fill="white"/>
</mask>
<g mask="url(#mask0_95_1352)">
<path d="M2.89844 5.63324V10.7737C2.89844 11.1019 3.07384 11.4054 3.35793 11.569L7.80972 14.1397C8.0938 14.3033 8.44353 14.3033 8.72762 14.1397L13.1795 11.569C13.4635 11.4054 13.6389 11.1019 13.6389 10.7737V5.63324C13.6389 5.30503 13.4635 5.00156 13.1795 4.83799L8.72762 2.26721C8.44353 2.10364 8.0938 2.10364 7.80972 2.26721L3.35686 4.83799C3.07276 5.00156 2.89844 5.30503 2.89844 5.63324Z" fill="#213147"/>
<path d="M9.23961 9.20466L8.60473 10.9458C8.58748 10.9942 8.58748 11.0469 8.60473 11.0954L9.69694 14.0912L10.9603 13.3616L9.44408 9.20466C9.40962 9.10886 9.27403 9.10886 9.23961 9.20466Z" fill="#12AAFF"/>
<path d="M10.5124 6.27495C10.478 6.17918 10.3424 6.17918 10.308 6.27495L9.67309 8.01608C9.65584 8.06451 9.65584 8.11721 9.67309 8.16564L11.4626 13.0705L12.7259 12.3409L10.5124 6.27495Z" fill="#12AAFF"/>
<path d="M8.26795 2.46089C8.29913 2.46089 8.33035 2.4695 8.35834 2.48456L13.176 5.26626C13.2319 5.29854 13.2664 5.35882 13.2664 5.42229V10.9846C13.2664 11.0492 13.2319 11.1084 13.176 11.1406L8.35834 13.9224C8.33142 13.9385 8.29913 13.946 8.26795 13.946C8.23672 13.946 8.20554 13.9374 8.17755 13.9224L3.35987 11.1428C3.30392 11.1105 3.26948 11.0503 3.26948 10.9868V5.42336C3.26948 5.35882 3.30392 5.29961 3.35987 5.26732L8.17755 2.48564C8.20554 2.4695 8.23672 2.46089 8.26795 2.46089ZM8.26795 1.64844C8.09683 1.64844 7.92465 1.69256 7.77079 1.78187L2.95418 4.5625C2.64642 4.74005 2.45703 5.06826 2.45703 5.42336V10.9857C2.45703 11.3408 2.64642 11.669 2.95418 11.8466L7.77185 14.6283C7.92572 14.7165 8.09683 14.7617 8.26901 14.7617C8.44013 14.7617 8.61227 14.7176 8.76617 14.6283L13.5838 11.8466C13.8916 11.669 14.081 11.3408 14.081 10.9857V5.42336C14.081 5.06826 13.8916 4.74005 13.5838 4.5625L8.7651 1.78187C8.6112 1.69256 8.43902 1.64844 8.26795 1.64844Z" fill="#9DCCED"/>
<path d="M5.08203 13.0771L5.52535 11.8633L6.41743 12.6047L5.58349 13.3666L5.08203 13.0771Z" fill="#213147"/>
<path d="M7.86427 5.02344H6.64291C6.55145 5.02344 6.46966 5.08043 6.43844 5.16652L3.82031 12.3441L5.08366 13.0737L7.9665 5.16976C7.99338 5.09875 7.94069 5.02344 7.86427 5.02344Z" fill="white"/>
<path d="M10.0011 5.02344H8.77978C8.68832 5.02344 8.60654 5.08043 8.57531 5.16652L5.58594 13.3621L6.84926 14.0917L10.1034 5.16976C10.1292 5.09875 10.0765 5.02344 10.0011 5.02344Z" fill="white"/>
</g>
</g>
</g>
<defs>
<clipPath id="clip0_95_1352">
<rect width="16.8" height="16.8" fill="white"/>
</clipPath>
<clipPath id="clip1_95_1352">
<rect width="16.8" height="16.8" fill="white"/>
</clipPath>
</defs>
</svg>
