<svg width="16" height="16" viewBox="0 0 16 16" fill="none" xmlns="http://www.w3.org/2000/svg">
<path d="M8.4987 5.16536V4.66536H7.4987V5.16536H8.4987ZM7.9987 7.9987H7.4987V8.20583L7.64516 8.35223L7.9987 7.9987ZM9.4785 10.1856C9.67376 10.3808 9.9903 10.3808 10.1856 10.1856C10.3808 9.9903 10.3808 9.67376 10.1856 9.4785L9.4785 10.1856ZM13.6654 7.9987C13.6654 11.1283 11.1283 13.6654 7.9987 13.6654V14.6654C11.6806 14.6654 14.6654 11.6806 14.6654 7.9987H13.6654ZM7.9987 13.6654C4.86908 13.6654 2.33203 11.1283 2.33203 7.9987H1.33203C1.33203 11.6806 4.3168 14.6654 7.9987 14.6654V13.6654ZM2.33203 7.9987C2.33203 4.86908 4.86908 2.33203 7.9987 2.33203V1.33203C4.3168 1.33203 1.33203 4.3168 1.33203 7.9987H2.33203ZM7.9987 2.33203C11.1283 2.33203 13.6654 4.86908 13.6654 7.9987H14.6654C14.6654 4.3168 11.6806 1.33203 7.9987 1.33203V2.33203ZM7.4987 5.16536V7.9987H8.4987V5.16536H7.4987ZM7.64516 8.35223L9.4785 10.1856L10.1856 9.4785L8.35223 7.64516L7.64516 8.35223Z" fill="#878794"/>
</svg>
