<svg width="17" height="16" viewBox="0 0 17 16" fill="none" xmlns="http://www.w3.org/2000/svg">
<path d="M10.826 1.33203H8.23002C7.05402 1.33203 6.12202 1.33203 5.39335 1.4307C4.64268 1.53203 4.03535 1.74536 3.55668 2.22603C3.07735 2.7067 2.86468 3.3167 2.76402 4.07003C2.66602 4.80203 2.66602 5.73736 2.66602 6.91803V10.81C2.66602 11.8154 3.27935 12.6767 4.15068 13.038C4.10602 12.4314 4.10602 11.5814 4.10602 10.8734V7.53336C4.10602 6.67936 4.10602 5.9427 4.18468 5.35336C4.26935 4.72136 4.46002 4.11603 4.94935 3.6247C5.43868 3.13336 6.04202 2.94203 6.67135 2.8567C7.25802 2.77803 7.99135 2.77803 8.84268 2.77803H10.8893C11.74 2.77803 12.472 2.77803 13.0593 2.8567C12.8833 2.40761 12.5761 2.02196 12.1778 1.75C11.7794 1.47804 11.3084 1.33239 10.826 1.33203Z" fill="#878794" fill-opacity="0.5"/>
<path d="M5.06641 7.59752C5.06641 5.78019 5.06641 4.87152 5.62907 4.30685C6.19107 3.74219 7.09574 3.74219 8.90641 3.74219H10.8264C12.6364 3.74219 13.5417 3.74219 14.1044 4.30685C14.6664 4.87152 14.6664 5.78019 14.6664 7.59752V10.8109C14.6664 12.6282 14.6664 13.5369 14.1044 14.1015C13.5417 14.6662 12.6364 14.6662 10.8264 14.6662H8.90641C7.09641 14.6662 6.19107 14.6662 5.62907 14.1015C5.06641 13.5369 5.06641 12.6282 5.06641 10.8109V7.59752Z" fill="#878794" fill-opacity="0.5"/>
</svg>
