<svg width="12" height="14" viewBox="0 0 12 14" fill="none" xmlns="http://www.w3.org/2000/svg">
<path d="M2.66666 0.99998V1.66665C2.66666 2.02027 2.80713 2.35941 3.05718 2.60946C3.30723 2.8595 3.64637 2.99998 3.99999 2.99998H7.99999C8.35361 2.99998 8.69275 2.8595 8.9428 2.60946C9.19285 2.35941 9.33332 2.02027 9.33332 1.66665V0.99998H9.99999C10.3536 0.99998 10.6927 1.14046 10.9428 1.3905C11.1928 1.64055 11.3333 1.97969 11.3333 2.33331V9.66665C11.3333 10.7275 10.9119 11.7449 10.1618 12.4951C9.41161 13.2452 8.39419 13.6666 7.33332 13.6666H1.99999C1.64637 13.6666 1.30723 13.5262 1.05718 13.2761C0.807132 13.0261 0.666656 12.6869 0.666656 12.3333V2.33331C0.666656 1.97969 0.807132 1.64055 1.05718 1.3905C1.30723 1.14046 1.64637 0.99998 1.99999 0.99998H2.66666ZM5.99999 8.33331H3.99999C3.82318 8.33331 3.65361 8.40355 3.52859 8.52857C3.40356 8.6536 3.33332 8.82317 3.33332 8.99998C3.33332 9.17679 3.40356 9.34636 3.52859 9.47138C3.65361 9.59641 3.82318 9.66665 3.99999 9.66665H5.99999C6.1768 9.66665 6.34637 9.59641 6.47139 9.47138C6.59642 9.34636 6.66666 9.17679 6.66666 8.99998C6.66666 8.82317 6.59642 8.6536 6.47139 8.52857C6.34637 8.40355 6.1768 8.33331 5.99999 8.33331ZM7.99999 5.66665H3.99999C3.83007 5.66683 3.66664 5.7319 3.54308 5.84854C3.41952 5.96519 3.34517 6.12461 3.33521 6.29424C3.32525 6.46387 3.38044 6.6309 3.4895 6.7612C3.59856 6.8915 3.75326 6.97524 3.92199 6.99531L3.99999 6.99998H7.99999C8.1768 6.99998 8.34637 6.92974 8.47139 6.80472C8.59642 6.67969 8.66666 6.51012 8.66666 6.33331C8.66666 6.1565 8.59642 5.98693 8.47139 5.86191C8.34637 5.73688 8.1768 5.66665 7.99999 5.66665ZM7.33332 0.333313C7.50324 0.333501 7.66668 0.398566 7.79024 0.515212C7.91379 0.631858 7.98815 0.791282 7.99811 0.960909C8.00806 1.13054 7.95287 1.29757 7.84381 1.42787C7.73475 1.55817 7.58005 1.64191 7.41132 1.66198L7.33332 1.66665H4.66666C4.49674 1.66646 4.3333 1.60139 4.20974 1.48475C4.08619 1.3681 4.01183 1.20868 4.00187 1.03905C3.99192 0.869422 4.04711 0.702393 4.15617 0.572091C4.26523 0.441789 4.41993 0.358049 4.58866 0.33798L4.66666 0.333313H7.33332Z" fill="#878789" fill-opacity="0.8"/>
</svg>
