<svg width="164" height="32" viewBox="0 0 164 32" fill="none" xmlns="http://www.w3.org/2000/svg">
<path d="M56.3632 15.6739V16.9849C56.3632 19.6068 55.4988 21.7502 53.7686 23.4151C52.0385 25.0811 49.7823 25.9135 46.9965 25.9135C44.048 25.9135 41.6125 24.9576 39.6923 23.0458C37.7722 21.1351 36.8115 18.7863 36.8115 16.0017C36.8115 13.2349 37.771 10.8908 39.6923 8.97065C41.6125 7.0505 43.9934 6.08984 46.8326 6.08984C48.6162 6.08984 50.2454 6.49952 51.7202 7.31887C53.1951 8.13823 54.3422 9.23902 55.1615 10.6224L52.4588 12.178C51.9494 11.2684 51.193 10.5357 50.192 9.98C49.1909 9.42545 48.0711 9.14758 46.8338 9.14758C44.8305 9.14758 43.1835 9.80307 41.8915 11.1129C40.5984 12.4238 39.9524 14.0613 39.9524 16.0278C39.9524 17.9931 40.6031 19.6235 41.9046 20.9154C43.2061 22.2086 44.9125 22.8546 47.025 22.8546C48.7183 22.8546 50.097 22.458 51.1621 21.6671C52.2273 20.8751 52.9053 19.8146 53.1963 18.4859H46.8065V15.6739H56.3632Z" fill="#071222"/>
<path d="M69.8511 11.9058H72.8008V25.5594H69.8511V23.5941C68.7408 25.1414 67.1484 25.9144 65.0727 25.9144C63.1977 25.9144 61.5958 25.2186 60.267 23.8257C58.9382 22.4328 58.2744 20.7359 58.2744 18.7326C58.2744 16.7115 58.9382 15.0099 60.267 13.6265C61.5958 12.2431 63.1977 11.5508 65.0727 11.5508C67.1484 11.5508 68.7408 12.3155 69.8511 13.8438V11.9058ZM62.4519 21.858C63.2713 22.6869 64.2996 23.1001 65.5382 23.1001C66.7755 23.1001 67.8039 22.6857 68.6232 21.858C69.4426 21.0304 69.8523 19.9878 69.8523 18.7314C69.8523 17.4751 69.4426 16.4337 68.6232 15.6048C67.8039 14.7771 66.7755 14.3627 65.5382 14.3627C64.2996 14.3627 63.2713 14.7771 62.4519 15.6048C61.6326 16.4337 61.2229 17.4751 61.2229 18.7314C61.2229 19.9878 61.6326 21.0304 62.4519 21.858Z" fill="#071222"/>
<path d="M78.8086 15.6559C78.8086 16.1059 79.0603 16.4598 79.565 16.721C80.0685 16.9823 80.6741 17.221 81.3806 17.4383C82.086 17.6556 82.8103 17.8788 83.5513 18.1068C84.2923 18.3348 84.911 18.7576 85.4073 19.3738C85.9049 19.9913 86.1531 20.7691 86.1531 21.7084C86.1531 23.0194 85.6484 24.0477 84.6379 24.7947C83.6273 25.5416 82.3579 25.9144 80.8285 25.9144C79.4807 25.9144 78.3253 25.6318 77.3598 25.0678C76.3956 24.5037 75.6938 23.7212 75.2568 22.7189L77.7968 21.2441C78.2694 22.5551 79.28 23.2106 80.8273 23.2106C82.3745 23.2106 83.1476 22.7011 83.1476 21.6811C83.1476 21.2441 82.897 20.8891 82.3971 20.6159C81.896 20.3428 81.2928 20.097 80.5862 19.8797C79.8809 19.6624 79.1565 19.4392 78.4155 19.2112C77.6745 18.9832 77.0535 18.5735 76.5536 17.9809C76.0524 17.3896 75.8019 16.6391 75.8019 15.7283C75.8019 14.472 76.2804 13.4614 77.2364 12.6979C78.1923 11.9331 79.3797 11.5508 80.8 11.5508C81.9281 11.5508 82.9338 11.8013 83.8173 12.3013C84.6996 12.8024 85.3777 13.4982 85.8515 14.39L83.3661 15.7829C82.8923 14.7451 82.0373 14.2273 80.8 14.2273C80.2359 14.2273 79.7621 14.3485 79.3797 14.5907C78.9997 14.833 78.8086 15.188 78.8086 15.6559Z" fill="#071222"/>
<path d="M97.2411 11.9062H100.381L95.1381 25.9968C93.8271 29.5283 91.6054 31.2027 88.4752 31.021V28.2625C89.4038 28.3171 90.1495 28.1212 90.7136 27.6759C91.2776 27.2294 91.7419 26.5335 92.1065 25.5871L92.243 25.314L86.4541 11.9062H89.6757L93.7464 21.8169L97.2411 11.9062Z" fill="#071222"/>
<path d="M112.503 11.9058H115.453V25.5594H112.503V23.5941C111.393 25.1414 109.8 25.9144 107.725 25.9144C105.85 25.9144 104.248 25.2186 102.919 23.8257C101.591 22.4328 100.927 20.7359 100.927 18.7326C100.927 16.7115 101.591 15.0099 102.919 13.6265C104.248 12.2431 105.85 11.5508 107.725 11.5508C109.801 11.5508 111.393 12.3155 112.503 13.8438V11.9058ZM105.103 21.858C105.922 22.6869 106.951 23.1001 108.189 23.1001C109.427 23.1001 110.455 22.6857 111.274 21.858C112.094 21.0304 112.503 19.9878 112.503 18.7314C112.503 17.4751 112.094 16.4337 111.274 15.6048C110.455 14.7771 109.427 14.3627 108.189 14.3627C106.951 14.3627 105.922 14.7771 105.103 15.6048C104.284 16.4337 103.874 17.4751 103.874 18.7314C103.874 19.9878 104.285 21.0304 105.103 21.858Z" fill="#071222"/>
<path d="M121.843 14.2002C122.59 12.5068 123.991 11.6602 126.049 11.6602V14.8556C124.92 14.7832 123.937 15.0516 123.099 15.6608C122.262 16.2711 121.843 17.2757 121.843 18.6781V25.5595H118.895V11.9072H121.843V14.2002Z" fill="#071222"/>
<path d="M138.417 6.44141H141.367V25.5561H138.417V23.5909C137.307 25.1382 135.715 25.9112 133.639 25.9112C131.764 25.9112 130.162 25.2153 128.833 23.8224C127.505 22.4295 126.841 20.7326 126.841 18.7294C126.841 16.7083 127.505 15.0066 128.833 13.6232C130.162 12.2398 131.764 11.5475 133.639 11.5475C135.715 11.5475 137.307 12.3123 138.417 13.8405V6.44141ZM131.018 21.856C131.838 22.6848 132.866 23.0981 134.105 23.0981C135.342 23.0981 136.37 22.6836 137.19 21.856C138.009 21.0283 138.419 19.9857 138.419 18.7294C138.419 17.473 138.009 16.4316 137.19 15.6028C136.37 14.7751 135.342 14.3607 134.105 14.3607C132.866 14.3607 131.838 14.7751 131.018 15.6028C130.199 16.4316 129.789 17.473 129.789 18.7294C129.789 19.9857 130.199 21.0283 131.018 21.856Z" fill="#071222"/>
<path d="M148.028 25.285C147.627 25.6852 147.145 25.8858 146.581 25.8858C146.017 25.8858 145.533 25.6852 145.133 25.285C144.733 24.8848 144.532 24.4027 144.532 23.8375C144.532 23.2734 144.728 22.7901 145.119 22.3899C145.511 21.9898 145.996 21.7891 146.579 21.7891C147.143 21.7891 147.627 21.9898 148.027 22.3899C148.427 22.7901 148.628 23.2734 148.628 23.8375C148.629 24.4027 148.428 24.8848 148.028 25.285Z" fill="#071222"/>
<path d="M163.183 11.9061V25.5596H160.235V14.7465H155.702V25.5596H152.753V14.7465H150.678V11.9061H152.753V11.633C152.753 7.93755 154.81 6.08984 158.925 6.08984C159.889 6.08984 160.899 6.20859 161.955 6.4449V9.14877C160.991 9.00271 159.98 8.93028 158.925 8.93028C157.832 8.93028 157.022 9.13096 156.494 9.53114C155.966 9.9325 155.702 10.6331 155.702 11.6341V11.9073H163.183V11.9061Z" fill="#071222"/>
<path d="M22.8422 15.9922V28.6673H14.6914V32.0005H22.6047L26.1588 28.4464V26.303H28.3022L31.8361 22.7703V15.9934H22.8422V15.9922ZM28.5017 22.99H26.1565V19.3088H28.5017V22.99Z" fill="url(#paint0_linear_88_38)"/>
<path d="M28.5017 5.6963L26.1565 3.33324L26.1386 3.31542L22.841 0.0178077L22.8232 0H8.99392L5.67849 3.31542V5.6963H3.29761L0 8.99391V22.9883L5.67849 28.649V28.6668H5.6963L8.99392 32H9.01173V9.01173H31.8361L28.5017 5.6963ZM5.67849 23.9584L4.68933 22.9871L3.31542 21.6132V9.01173H5.67849V23.9584ZM9.01173 5.6963V3.31542H21.4493L22.841 4.70714L23.8124 5.6963H9.01173Z" fill="url(#paint1_linear_88_38)"/>
<path d="M22.8359 22.9805V26.3006H14.6815V31.9898H11.3613V22.9805H22.8359Z" fill="url(#paint2_linear_88_38)"/>
<path d="M11.6063 0H9.01172V3.31542H11.6063V0Z" fill="url(#paint3_linear_88_38)"/>
<path d="M11.6063 5.69531H9.01172V9.01074H11.6063V5.69531Z" fill="url(#paint4_linear_88_38)"/>
<path d="M26.1582 26.3076V22.9922H28.7528L28.3016 26.3076H26.1582Z" fill="url(#paint5_linear_88_38)"/>
<path d="M22.8358 22.9805V26.2959H20.2412L20.6925 22.9805H22.8358Z" fill="url(#paint6_linear_88_38)"/>
<path d="M5.67861 5.69531V9.01074H3.08398L3.47348 5.69531H5.67861Z" fill="url(#paint7_linear_88_38)"/>
<path d="M5.67849 23.9613V28.6696L0 22.9911L3.31542 21.6172L5.67849 23.9613Z" fill="url(#paint8_linear_88_38)"/>
<defs>
<linearGradient id="paint0_linear_88_38" x1="23.2633" y1="-0.118782" x2="23.2633" y2="29.7252" gradientUnits="userSpaceOnUse">
<stop stop-color="#FFCA34"/>
<stop offset="0.4944" stop-color="#EB2F91"/>
<stop offset="1" stop-color="#1150E8"/>
</linearGradient>
<linearGradient id="paint1_linear_88_38" x1="15.918" y1="-0.120469" x2="15.918" y2="29.7236" gradientUnits="userSpaceOnUse">
<stop stop-color="#FFCA34"/>
<stop offset="0.4944" stop-color="#EB2F91"/>
<stop offset="1" stop-color="#1150E8"/>
</linearGradient>
<linearGradient id="paint2_linear_88_38" x1="17.0988" y1="-0.123526" x2="17.0988" y2="29.7205" gradientUnits="userSpaceOnUse">
<stop stop-color="#FFCA34"/>
<stop offset="0.4944" stop-color="#EB2F91"/>
<stop offset="1" stop-color="#1150E8"/>
</linearGradient>
<linearGradient id="paint3_linear_88_38" x1="11.5621" y1="1.65743" x2="4.74147" y2="1.65743" gradientUnits="userSpaceOnUse">
<stop stop-color="white" stop-opacity="0"/>
<stop offset="1"/>
</linearGradient>
<linearGradient id="paint4_linear_88_38" x1="11.5621" y1="7.35313" x2="4.74147" y2="7.35313" gradientUnits="userSpaceOnUse">
<stop stop-color="white" stop-opacity="0"/>
<stop offset="1"/>
</linearGradient>
<linearGradient id="paint5_linear_88_38" x1="28.7077" y1="24.6497" x2="21.8871" y2="24.6497" gradientUnits="userSpaceOnUse">
<stop stop-color="white" stop-opacity="0"/>
<stop offset="0.00262111" stop-color="#FEFEFE" stop-opacity="0.01"/>
<stop offset="0.1698" stop-color="#BCBCBC" stop-opacity="0.1698"/>
<stop offset="0.3341" stop-color="#838383" stop-opacity="0.3341"/>
<stop offset="0.4912" stop-color="#545454" stop-opacity="0.4912"/>
<stop offset="0.64" stop-color="#2F2F2F" stop-opacity="0.64"/>
<stop offset="0.7784" stop-color="#151515" stop-opacity="0.7784"/>
<stop offset="0.9024" stop-color="#060606" stop-opacity="0.9024"/>
<stop offset="1"/>
</linearGradient>
<linearGradient id="paint6_linear_88_38" x1="20.2862" y1="24.6382" x2="27.1068" y2="24.6382" gradientUnits="userSpaceOnUse">
<stop stop-color="white" stop-opacity="0"/>
<stop offset="0.0593" stop-color="#E5E5E5" stop-opacity="0.0593"/>
<stop offset="0.2076" stop-color="#A9A9A9" stop-opacity="0.2076"/>
<stop offset="0.3553" stop-color="#757575" stop-opacity="0.3553"/>
<stop offset="0.4989" stop-color="#4B4B4B" stop-opacity="0.4989"/>
<stop offset="0.6377" stop-color="#2A2A2A" stop-opacity="0.6377"/>
<stop offset="0.7702" stop-color="#131313" stop-opacity="0.7702"/>
<stop offset="0.8939" stop-color="#050505" stop-opacity="0.8939"/>
<stop offset="1"/>
</linearGradient>
<linearGradient id="paint7_linear_88_38" x1="3.12876" y1="7.35313" x2="9.94937" y2="7.35313" gradientUnits="userSpaceOnUse">
<stop stop-color="white" stop-opacity="0"/>
<stop offset="1"/>
</linearGradient>
<linearGradient id="paint8_linear_88_38" x1="2.75301" y1="24.1195" x2="8.97139" y2="27.7695" gradientUnits="userSpaceOnUse">
<stop stop-color="white" stop-opacity="0"/>
<stop offset="1"/>
</linearGradient>
</defs>
</svg>
