<svg width="12" height="13" viewBox="0 0 12 13" fill="none" xmlns="http://www.w3.org/2000/svg">
<path d="M7.33333 0.5V1.83333H9.72667L3.17333 8.38667L4.11333 9.32667L10.6667 2.77333V5.16667H12V0.5M10.6667 11.1667H1.33333V1.83333H6V0.5H1.33333C0.979711 0.5 0.640573 0.640476 0.390524 0.890524C0.140476 1.14057 0 1.47971 0 1.83333V11.1667C0 11.5203 0.140476 11.8594 0.390524 12.1095C0.640573 12.3595 0.979711 12.5 1.33333 12.5H10.6667C11.0203 12.5 11.3594 12.3595 11.6095 12.1095C11.8595 11.8594 12 11.5203 12 11.1667V6.5H10.6667V11.1667Z" fill="#1557E2"/>
</svg>
