<svg width="28" height="28" viewBox="0 0 28 28" fill="none" xmlns="http://www.w3.org/2000/svg">
<path fill-rule="evenodd" clip-rule="evenodd" d="M23.0732 5.16835C23.3615 5.04701 23.677 5.00516 23.987 5.04716C24.297 5.08916 24.59 5.21347 24.8356 5.40715C25.0813 5.60084 25.2705 5.85682 25.3836 6.14845C25.4967 6.44008 25.5296 6.7567 25.4788 7.06535L22.8328 23.1152C22.5762 24.6634 20.8775 25.5512 19.4577 24.78C18.27 24.1349 16.506 23.1409 14.9193 22.1037C14.126 21.5845 11.6958 19.922 11.9945 18.739C12.2512 17.7275 16.3345 13.9265 18.6678 11.6667C19.5837 10.7789 19.166 10.2667 18.0845 11.0834C15.3988 13.111 11.0868 16.1945 9.66117 17.0625C8.4035 17.8279 7.74783 17.9585 6.96383 17.8279C5.5335 17.5899 4.207 17.2212 3.12434 16.772C1.66134 16.1654 1.7325 14.154 3.12317 13.5684L23.0732 5.16835Z" fill="black"/>
</svg>
