<svg width="160" height="160" viewBox="0 0 160 160" fill="none" xmlns="http://www.w3.org/2000/svg">
<path d="M149.539 11.1272C138.977 0.560733 110.626 10.9535 80.3342 34.6512C50.0374 10.9535 21.691 0.560733 11.1246 11.1272C0.562587 21.6936 10.9554 50.0401 34.6486 80.3368C10.9554 110.629 0.562587 138.976 11.1246 149.542C21.691 160.108 50.0374 149.716 80.3342 126.022C110.626 149.716 138.977 160.108 149.539 149.542C160.106 138.976 149.713 110.629 126.02 80.3368C149.713 50.0401 160.106 21.6936 149.539 11.1272ZM105.929 80.3368L86.862 82.7458C95.024 87.2564 107.581 96.6073 116.308 105.335C128.371 117.402 126.639 120.63 123.58 123.694C120.516 126.753 117.288 128.485 105.221 116.422C96.5468 107.744 87.2538 95.2581 82.7165 87.1006L80.3342 105.927L77.9386 87.0115C73.3967 95.1646 64.1127 107.641 55.4432 116.311C43.3806 128.373 40.1478 126.641 37.0887 123.582C34.0252 120.519 32.2931 117.29 44.3602 105.223C53.0297 96.5539 65.4797 87.2653 73.6417 82.728L54.7396 80.3368L73.5704 77.9501C65.4174 73.4172 52.9229 64.1242 44.2489 55.4457C32.1818 43.3832 33.9139 40.1504 36.9774 37.0914C40.0365 34.0279 43.2692 32.2957 55.3318 44.3628C64.0593 53.0858 73.4146 65.6426 77.9208 73.8001L80.3342 54.7422L82.7343 73.7111C87.2405 65.5491 96.6003 52.9834 105.332 44.247C117.399 32.1844 120.627 33.9165 123.691 36.9801C126.75 40.0391 128.487 43.2718 116.42 55.3344C107.688 64.0663 95.0907 73.4261 86.9332 77.9323L105.929 80.3368ZM82.7343 73.7111C81.5766 75.8083 80.7394 77.6161 80.3164 78.9876C79.88 77.6206 79.0518 75.8529 77.9208 73.8001L77.4577 77.4603L73.5704 77.9501C75.5697 79.0633 77.3063 79.8871 78.6644 80.3502C77.3107 80.8177 75.6009 81.637 73.6417 82.728L77.4577 83.2089L77.9386 87.0115C79.0295 85.0523 79.8444 83.3469 80.3164 81.9977C80.775 83.3558 81.6033 85.0968 82.7165 87.1006L83.2106 83.2089L86.862 82.7458C84.8137 81.6103 83.037 80.7865 81.6745 80.3502C83.0415 79.9271 84.8404 79.09 86.9332 77.9323L83.2106 77.4603L82.7343 73.7111Z" fill="white"/>
</svg>
